<?xml version="1.0" ?><svg height="20" version="1.1" viewBox="0 0 20 20" width="20" xmlns="http://www.w3.org/2000/svg"><g id="layer1"><path d="M 0 3 L 0 14 L 2 14 L 2 17.5 C 2 17.776142 2.2238576 18 2.5 18 C 2.6326005 17.99998 2.7597628 17.94729 2.8535156 17.853516 C 4.1335162 16.57007 6.7070312 14 6.7070312 14 L 20 14 L 20 3 L 0 3 z M 1 4 L 19 4 L 19 13 L 6.2929688 13 L 3 16.292969 L 3 13 L 1 13 L 1 4 z M 3 6 L 3 7 L 14 7 L 14 6 L 3 6 z M 3 8 L 3 9 L 10 9 L 10 8 L 3 8 z M 3 10 L 3 11 L 16 11 L 16 10 L 3 10 z " style="fill:#222222; fill-opacity:1; stroke:none; stroke-width:0px;"/></g></svg>