<?xml version="1.0" ?><svg height="20" version="1.1" viewBox="0 0 20 20" width="20" xmlns="http://www.w3.org/2000/svg"><g id="layer1"><path d="M 9.6269531 5.0039062 L 8.8789062 5.0488281 L 8.1367188 5.1386719 L 7.4003906 5.2714844 L 6.6757812 5.4511719 L 5.9609375 5.6699219 L 5.2617188 5.9316406 L 4.578125 6.2363281 L 3.9140625 6.5820312 L 3.2714844 6.9628906 L 2.6542969 7.3867188 L 2.0625 7.8417969 L 1.4980469 8.3339844 L 0.96679688 8.859375 L 0.46679688 9.4140625 L 0 9.9980469 L 0.46679688 10.583984 L 0.96679688 11.140625 L 1.4980469 11.664062 L 2.0625 12.15625 L 2.6542969 12.613281 L 3.2714844 13.033203 L 3.9140625 13.417969 L 4.578125 13.761719 L 5.2617188 14.066406 L 5.9609375 14.328125 L 6.6757812 14.548828 L 7.4003906 14.726562 L 8.1367188 14.861328 L 8.8789062 14.949219 L 9.6269531 14.992188 L 10.373047 14.992188 L 11.119141 14.949219 L 11.863281 14.861328 L 12.599609 14.726562 L 13.324219 14.548828 L 14.039062 14.328125 L 14.738281 14.066406 L 15.421875 13.761719 L 16.085938 13.417969 L 16.726562 13.033203 L 17.345703 12.613281 L 17.9375 12.15625 L 18.501953 11.664062 L 19.033203 11.140625 L 19.533203 10.583984 L 20 9.9980469 L 19.533203 9.4140625 L 19.033203 8.859375 L 18.501953 8.3339844 L 17.9375 7.8417969 L 17.345703 7.3867188 L 16.726562 6.9628906 L 16.085938 6.5820312 L 15.421875 6.2363281 L 14.738281 5.9316406 L 14.039062 5.6699219 L 13.324219 5.4511719 L 12.599609 5.2714844 L 11.863281 5.1386719 L 11.119141 5.0488281 L 10.373047 5.0039062 L 9.6269531 5.0039062 z M 9.8945312 6.0019531 L 10.318359 6.0117188 L 10.740234 6.0683594 L 11.154297 6.1699219 L 11.554688 6.3144531 L 11.939453 6.5019531 L 12.298828 6.7265625 L 12.634766 6.9882812 L 12.939453 7.2851562 L 13.210938 7.6132812 L 13.445312 7.96875 L 13.640625 8.3476562 L 13.796875 8.7441406 L 13.910156 9.1542969 L 13.978516 9.5742188 L 14.001953 9.9980469 L 13.978516 10.425781 L 13.910156 10.845703 L 13.796875 11.255859 L 13.640625 11.652344 L 13.445312 12.029297 L 13.210938 12.384766 L 12.939453 12.712891 L 12.634766 13.009766 L 12.298828 13.273438 L 11.939453 13.498047 L 11.554688 13.685547 L 11.154297 13.828125 L 10.740234 13.929688 L 10.318359 13.986328 L 9.8945312 13.998047 L 9.46875 13.964844 L 9.0507812 13.884766 L 8.6425781 13.763672 L 8.25 13.597656 L 7.8789062 13.390625 L 7.5292969 13.146484 L 7.2089844 12.865234 L 6.9199219 12.552734 L 6.6679688 12.210938 L 6.4511719 11.84375 L 6.2734375 11.455078 L 6.140625 11.052734 L 6.0507812 10.636719 L 6.0058594 10.212891 L 6.0058594 9.7871094 L 6.0507812 9.3632812 L 6.140625 8.9472656 L 6.2734375 8.5429688 L 6.4511719 8.15625 L 6.6679688 7.7871094 L 6.9199219 7.4472656 L 7.2089844 7.1347656 L 7.5292969 6.8515625 L 7.8789062 6.609375 L 8.25 6.4023438 L 8.6425781 6.2363281 L 9.0507812 6.1152344 L 9.46875 6.0351562 L 9.8945312 6.0019531 z M 6.3339844 6.5996094 L 6.0332031 6.9570312 L 5.765625 7.3398438 L 5.5371094 7.7480469 L 5.3457031 8.171875 L 5.1933594 8.6152344 L 5.0859375 9.0703125 L 5.0214844 9.5332031 L 5 9.9980469 L 5.0214844 10.464844 L 5.0859375 10.927734 L 5.1933594 11.384766 L 5.3457031 11.826172 L 5.5371094 12.251953 L 5.765625 12.660156 L 6.0332031 13.042969 L 6.3339844 13.400391 L 5.6914062 13.162109 L 5.0644531 12.886719 L 4.4570312 12.574219 L 3.8652344 12.226562 L 3.2988281 11.84375 L 2.7539062 11.427734 L 2.234375 10.982422 L 1.7421875 10.505859 L 1.28125 9.9980469 L 1.7421875 9.4941406 L 2.234375 9.0175781 L 2.7539062 8.5703125 L 3.2988281 8.1542969 L 3.8652344 7.7734375 L 4.4570312 7.4238281 L 5.0644531 7.1132812 L 5.6914062 6.8378906 L 6.3339844 6.5996094 z M 13.666016 6.5996094 L 14.308594 6.8378906 L 14.933594 7.1132812 L 15.542969 7.4238281 L 16.134766 7.7734375 L 16.701172 8.1542969 L 17.246094 8.5703125 L 17.765625 9.0175781 L 18.255859 9.4941406 L 18.71875 9.9980469 L 18.255859 10.505859 L 17.765625 10.982422 L 17.246094 11.427734 L 16.701172 11.84375 L 16.134766 12.226562 L 15.542969 12.574219 L 14.933594 12.886719 L 14.308594 13.162109 L 13.666016 13.400391 L 13.966797 13.042969 L 14.234375 12.660156 L 14.462891 12.251953 L 14.654297 11.826172 L 14.804688 11.384766 L 14.914062 10.927734 L 14.978516 10.464844 L 15 9.9980469 L 14.978516 9.5332031 L 14.914062 9.0703125 L 14.804688 8.6152344 L 14.654297 8.171875 L 14.462891 7.7480469 L 14.234375 7.3398438 L 13.966797 6.9570312 L 13.666016 6.5996094 z M 12.117188 8.2519531 L 11.978516 8.2871094 L 11.855469 8.3574219 L 11.757812 8.4609375 L 11.693359 8.5878906 L 11.666016 8.7265625 L 11.677734 8.8691406 L 11.730469 9.0019531 L 11.859375 9.2617188 L 11.945312 9.5390625 L 11.992188 9.8242188 L 11.996094 10.117188 L 11.957031 10.404297 L 11.880859 10.683594 L 11.759766 10.949219 L 11.605469 11.195312 L 11.414062 11.414062 L 11.195312 11.605469 L 10.949219 11.759766 L 10.683594 11.878906 L 10.404297 11.957031 L 10.117188 11.996094 L 9.8242188 11.992188 L 9.5390625 11.945312 L 9.2617188 11.859375 L 9 11.730469 L 8.8671875 11.677734 L 8.7246094 11.666016 L 8.5859375 11.693359 L 8.4609375 11.757812 L 8.3574219 11.855469 L 8.2851562 11.978516 L 8.2519531 12.117188 L 8.2578125 12.257812 L 8.3046875 12.392578 L 8.3886719 12.511719 L 8.5 12.597656 L 8.8339844 12.765625 L 9.1875 12.886719 L 9.5527344 12.966797 L 9.9257812 12.998047 L 10.298828 12.986328 L 10.667969 12.925781 L 11.027344 12.820312 L 11.369141 12.667969 L 11.689453 12.478516 L 11.984375 12.248047 L 12.25 11.986328 L 12.478516 11.689453 L 12.669922 11.367188 L 12.820312 11.025391 L 12.923828 10.667969 L 12.986328 10.296875 L 12.998047 9.9257812 L 12.966797 9.5527344 L 12.886719 9.1875 L 12.765625 8.8339844 L 12.599609 8.5 L 12.509766 8.3867188 L 12.394531 8.3046875 L 12.259766 8.2578125 L 12.117188 8.2519531 z " style="fill:#222222; fill-opacity:1; stroke:none; stroke-width:0px;"/></g></svg>